<svg id="Layer_1" enable-background="new 0 0 512 512" height="512" viewBox="0 0 512 512" width="512" xmlns="http://www.w3.org/2000/svg"><path d="m461.547 107.646c39.234-39.078 11.101-107.777-44.881-107.646-55.98-.132-84.115 68.579-44.879 107.646-3.028 1.623-5.959 3.403-8.781 5.333-62.518-43.371-151.493-43.37-214.01 0-2.822-1.929-5.753-3.71-8.781-5.333 39.232-39.078 11.1-107.777-44.882-107.646-55.98-.132-84.116 68.579-44.879 107.646-30.001 16.077-50.454 47.737-50.454 84.087v32.133c0 8.284 6.716 15 15 15h52.142c-14.898 79.026 25.934 163.663 96.756 201.374-2.103 7.859-3.231 16.113-3.231 24.626v32.134c0 8.284 6.716 15 15 15h160.667c8.284 0 15-6.716 15-15v-32.133c0-8.513-1.128-16.767-3.231-24.626 70.825-37.714 111.653-122.348 96.756-201.374h52.141c8.284 0 15-6.716 15-15v-32.133c0-36.351-20.453-68.011-50.453-84.088zm-44.88-77.646c18.307 0 33.2 14.894 33.2 33.2-1.823 44.044-64.583 44.031-66.4 0 0-18.307 14.893-33.2 33.2-33.2zm-321.334 0c18.306 0 33.2 14.894 33.2 33.2-1.824 44.044-64.583 44.031-66.4 0 0-18.307 14.894-33.2 33.2-33.2zm-65.333 178.867v-17.133c3.599-86.695 127.1-86.628 130.667 0v17.133zm291.333 273.133h-130.666v-17.133c3.599-86.695 127.1-86.628 130.667 0v17.133zm-98.533-145.667c0-18.307 14.894-33.2 33.2-33.2 44.044 1.824 44.032 64.583 0 66.4-18.307 0-33.2-14.893-33.2-33.2zm112.976 76.401c-8.754-13.351-20.764-24.381-34.895-31.954 39.235-39.078 11.101-107.778-44.881-107.646-55.98-.132-84.116 68.579-44.879 107.646-14.131 7.573-26.141 18.604-34.895 31.954-60.176-33.566-93.347-106.055-78.54-173.867h77.982c8.284 0 15-6.716 15-15v-32.133c0-21.571-7.205-41.488-19.33-57.481 50.194-31.785 119.134-31.784 169.327 0-12.125 15.993-19.33 35.91-19.33 57.481v32.133c0 8.284 6.716 15 15 15h77.982c14.804 67.818-18.364 140.296-78.541 173.867zm146.224-203.867h-130.667v-17.133c3.599-86.695 127.1-86.628 130.667 0z"/></svg>