<?xml version="1.0" encoding="iso-8859-1"?>
<!-- Generator: Adobe Illustrator 19.0.0, SVG Export Plug-In . SVG Version: 6.00 Build 0)  -->
<svg version="1.1" id="Capa_1" xmlns="http://www.w3.org/2000/svg" xmlns:xlink="http://www.w3.org/1999/xlink" x="0px" y="0px"
	 viewBox="0 0 469.333 469.333" style="enable-background:new 0 0 469.333 469.333;" xml:space="preserve">
<path style="fill:#303C42;" d="M245.333,0c-123.521,0-224,81.344-224,181.333c0,7.74,4.583,16.177,8.5,21.979L1.52,250.51
	c-1.542,2.573-1.938,5.677-1.063,8.552c0.854,2.875,2.896,5.26,5.604,6.552c12.25,5.875,25.938,16.844,25.938,22.729
	c0,8.76-3.792,10.979-3.729,11c-2.833,1.063-5.083,3.271-6.188,6.083c-1.125,2.823-0.979,5.969,0.375,8.677l8.292,16.563
	l-8.292,16.563c-0.729,1.479-1.125,3.115-1.125,4.771v64c0,30.906,13.458,53.333,32,53.333c10.5,0,151.667-28.667,169.208-58.604
	c12.208-20.854,12.813-82.469,12.396-111.021c14.854,2.833,27.5,11.104,40.729,19.75c16.438,10.75,33.438,21.875,55.021,21.875
	c76.792,0,138.646-87.531,138.646-160C469.333,81.344,368.854,0,245.333,0z"/>
<path style="fill:#FAFAFA;" d="M204.124,399.938c-9.5,16.229-131.25,47.49-150.792,48.063c-3.104,0-10.667-11.219-10.667-32v-32.06
	c33.788-0.344,92.389-2.57,103.542-13.732c8.605-8.605,14.768-38.056,18.137-58.434c1.078-0.428,2.154-0.829,3.238-1.264
	c12.542-5.021,25.438-10.198,46-11.521C214.104,334.729,212.104,386.323,204.124,399.938z"/>
<path style="opacity:0.1;enable-background:new    ;" d="M213.611,316.047c0.047-5.906,0.049-11.685-0.029-17.057
	c-5.055,0.326-9.634,0.889-13.862,1.625c-12.999,2.243-22.678,6.109-32.138,9.896c-1.085,0.435-2.16,0.836-3.238,1.264
	c-0.53,3.204-1.152,6.667-1.819,10.204c0.727-0.264,1.452-0.526,2.184-0.802c7.18-2.706,14.592-5.401,23.207-7.57
	c-0.594,31.23-3.155,64.798-9.367,75.396c-7.915,13.522-93.585,37.419-133.303,45.366c2.488,8.63,6.116,13.632,8.087,13.632
	c19.542-0.573,141.292-31.833,150.792-48.063c6.78-11.568,9.219-50.505,9.487-83.889v0.003V316.047z"/>
<path style="fill:#FAFAFA;" d="M330.687,320c-15.229,0-28.271-8.521-43.354-18.396c-17.396-11.375-37.104-24.271-63.333-24.271
	c-30.979,0-49.479,7.417-64.354,13.375c-11.083,4.448-19.854,7.958-31.646,7.958c-24.229,0-32.917-15.083-33.208-15.594
	c-2.708-5.229-9.208-7.25-14.375-4.531c-5.229,2.719-7.271,9.156-4.542,14.385C76.437,294.031,90.395,320,127.999,320
	c4.855,0,9.216-0.527,13.395-1.262c-3.281,16.913-7.32,32.751-9.54,35.783c-6.763,4.007-47.004,7.513-89.188,8.039v-8.039
	l9.542-19.083c1.5-3,1.5-6.542,0-9.542l-6.833-13.677c4.333-5.073,7.958-12.833,7.958-23.875c0-16.177-16.271-29.146-27.833-36.323
	l26.313-43.865c2.333-3.875,1.938-8.813-0.938-12.292c-4.167-5.042-8.146-12.104-8.208-14.531c0-88.229,90.917-160,202.667-160
	s202.667,71.771,202.667,160C447.999,243.75,393.874,320,330.687,320z"/>
<path style="opacity:0.1;enable-background:new    ;" d="M322.779,33.53c53.538,28.827,88.776,77.34,88.776,132.251
	c0,62.417-54.125,138.667-117.313,138.667c-1.073,0-2.069-0.337-3.122-0.419C304.613,312.793,316.769,320,330.687,320
	c63.188,0,117.313-76.25,117.313-138.667C447.999,114.757,396.203,57.598,322.779,33.53z"/>
<g>
	<path style="fill:#303C42;" d="M74.666,192c-5.896,0-10.667,4.771-10.667,10.667s4.771,10.667,10.667,10.667
		c3.729,0,10.667,10.99,10.667,32c0,5.896,4.771,10.667,10.667,10.667s10.667-4.771,10.667-10.667
		C106.666,213.438,93.812,192,74.666,192z"/>
	<path style="fill:#303C42;" d="M237.791,216.458c-19.125,19.115-55,19.479-69.833,18.792
		c-3.959-10.885-13.396-31.771-32.417-50.792c-6.167-6.156-11.25-10.906-15.438-14.792c-12.813-11.938-13.438-12.896-13.438-20.333
		c0-6.688,14.813-23.51,28.104-34.417c4.542-3.74,5.208-10.458,1.479-15.01c-3.729-4.573-10.479-5.219-15-1.49
		c-8.438,6.896-35.917,30.969-35.917,50.917c0,17.094,6.771,23.396,20.229,35.938c4.042,3.76,8.958,8.333,14.896,14.271
		c22.333,22.323,29.125,48.146,29.208,48.406c1.083,4.25,4.667,7.427,9.021,7.969c0.792,0.104,7.375,0.875,17.021,0.875
		c20.708,0,55.5-3.594,77.167-25.25c4.167-4.167,4.167-10.917,0-15.083C248.708,212.292,241.958,212.292,237.791,216.458z"/>
</g>
<linearGradient id="SVGID_1_" gradientUnits="userSpaceOnUse" x1="-66.2869" y1="616.6674" x2="-47.8451" y2="608.063" gradientTransform="matrix(21.3333 0 0 -21.3333 1430.1113 13315.2227)">
	<stop  offset="0" style="stop-color:#FFFFFF;stop-opacity:0.2"/>
	<stop  offset="1" style="stop-color:#FFFFFF;stop-opacity:0"/>
</linearGradient>
<path style="fill:url(#SVGID_1_);" d="M245.333,0c-123.521,0-224,81.344-224,181.333c0,7.74,4.583,16.177,8.5,21.979L1.52,250.51
	c-1.542,2.573-1.938,5.677-1.063,8.552c0.854,2.875,2.896,5.26,5.604,6.552c12.25,5.875,25.938,16.844,25.938,22.729
	c0,8.76-3.792,10.979-3.729,11c-2.833,1.063-5.083,3.271-6.188,6.083c-1.125,2.823-0.979,5.969,0.375,8.677l8.292,16.563
	l-8.292,16.563c-0.729,1.479-1.125,3.115-1.125,4.771v64c0,30.906,13.458,53.333,32,53.333c10.5,0,151.667-28.667,169.208-58.604
	c12.208-20.854,12.813-82.469,12.396-111.021c14.854,2.833,27.5,11.104,40.729,19.75c16.438,10.75,33.438,21.875,55.021,21.875
	c76.792,0,138.646-87.531,138.646-160C469.333,81.344,368.854,0,245.333,0z"/>
<g>
</g>
<g>
</g>
<g>
</g>
<g>
</g>
<g>
</g>
<g>
</g>
<g>
</g>
<g>
</g>
<g>
</g>
<g>
</g>
<g>
</g>
<g>
</g>
<g>
</g>
<g>
</g>
<g>
</g>
</svg>
